<mxfile host="app.diagrams.net" modified="2022-06-14T02:15:17.212Z" agent="5.0 (Windows NT 10.0; Win64; x64) AppleWebKit/537.36 (KHTML, like Gecko) Chrome/102.0.0.0 Safari/537.36" etag="nqIxADAga3U_mT8SkmuJ" version="20.0.1" type="github">
  <diagram id="Qi6uZbP4RxR8HKY1XQcl" name="Page-1">
    <mxGraphModel dx="1673" dy="896" grid="1" gridSize="10" guides="1" tooltips="1" connect="1" arrows="1" fold="1" page="1" pageScale="1" pageWidth="1169" pageHeight="1654" math="0" shadow="0">
      <root>
        <mxCell id="0" />
        <mxCell id="1" parent="0" />
        <mxCell id="tD11vHqrNzHcGGNDuIi9-5" style="edgeStyle=orthogonalEdgeStyle;rounded=0;orthogonalLoop=1;jettySize=auto;html=1;exitX=0.5;exitY=1;exitDx=0;exitDy=0;entryX=0.5;entryY=0;entryDx=0;entryDy=0;fontSize=13;" edge="1" parent="1" source="tD11vHqrNzHcGGNDuIi9-1" target="tD11vHqrNzHcGGNDuIi9-4">
          <mxGeometry relative="1" as="geometry" />
        </mxCell>
        <mxCell id="tD11vHqrNzHcGGNDuIi9-1" value="电机绝对位置为0" style="rounded=0;whiteSpace=wrap;html=1;fontSize=13;" vertex="1" parent="1">
          <mxGeometry x="200" y="140" width="120" height="60" as="geometry" />
        </mxCell>
        <mxCell id="tD11vHqrNzHcGGNDuIi9-3" style="edgeStyle=orthogonalEdgeStyle;rounded=0;orthogonalLoop=1;jettySize=auto;html=1;exitX=0.5;exitY=1;exitDx=0;exitDy=0;entryX=0.5;entryY=0;entryDx=0;entryDy=0;fontSize=13;" edge="1" parent="1" source="tD11vHqrNzHcGGNDuIi9-2" target="tD11vHqrNzHcGGNDuIi9-1">
          <mxGeometry relative="1" as="geometry" />
        </mxCell>
        <mxCell id="tD11vHqrNzHcGGNDuIi9-2" value="开始" style="rounded=1;whiteSpace=wrap;html=1;fontSize=13;" vertex="1" parent="1">
          <mxGeometry x="200" y="50" width="120" height="60" as="geometry" />
        </mxCell>
        <mxCell id="tD11vHqrNzHcGGNDuIi9-7" style="edgeStyle=orthogonalEdgeStyle;rounded=0;orthogonalLoop=1;jettySize=auto;html=1;exitX=0.5;exitY=1;exitDx=0;exitDy=0;entryX=0.5;entryY=0;entryDx=0;entryDy=0;fontSize=13;" edge="1" parent="1" source="tD11vHqrNzHcGGNDuIi9-4" target="tD11vHqrNzHcGGNDuIi9-6">
          <mxGeometry relative="1" as="geometry" />
        </mxCell>
        <mxCell id="tD11vHqrNzHcGGNDuIi9-4" value="电机前进" style="rounded=0;whiteSpace=wrap;html=1;fontSize=13;" vertex="1" parent="1">
          <mxGeometry x="200" y="230" width="120" height="60" as="geometry" />
        </mxCell>
        <mxCell id="tD11vHqrNzHcGGNDuIi9-9" value="无" style="edgeStyle=orthogonalEdgeStyle;rounded=0;orthogonalLoop=1;jettySize=auto;html=1;exitX=0.5;exitY=1;exitDx=0;exitDy=0;entryX=0.5;entryY=0;entryDx=0;entryDy=0;fontSize=13;" edge="1" parent="1" source="tD11vHqrNzHcGGNDuIi9-6" target="tD11vHqrNzHcGGNDuIi9-8">
          <mxGeometry relative="1" as="geometry" />
        </mxCell>
        <mxCell id="tD11vHqrNzHcGGNDuIi9-29" value="有" style="edgeStyle=orthogonalEdgeStyle;rounded=0;sketch=0;jumpStyle=line;orthogonalLoop=1;jettySize=auto;html=1;entryX=0.5;entryY=0;entryDx=0;entryDy=0;shadow=0;fontColor=#FF0000;strokeWidth=1;fontSize=13;" edge="1" parent="1" source="tD11vHqrNzHcGGNDuIi9-6" target="tD11vHqrNzHcGGNDuIi9-24">
          <mxGeometry relative="1" as="geometry" />
        </mxCell>
        <mxCell id="tD11vHqrNzHcGGNDuIi9-6" value="前超声波避障" style="rhombus;whiteSpace=wrap;html=1;fontSize=13;" vertex="1" parent="1">
          <mxGeometry x="200" y="321" width="120" height="80" as="geometry" />
        </mxCell>
        <mxCell id="tD11vHqrNzHcGGNDuIi9-17" style="edgeStyle=orthogonalEdgeStyle;rounded=0;orthogonalLoop=1;jettySize=auto;html=1;exitX=0.5;exitY=1;exitDx=0;exitDy=0;entryX=0.5;entryY=0;entryDx=0;entryDy=0;fontSize=13;" edge="1" parent="1" source="tD11vHqrNzHcGGNDuIi9-8">
          <mxGeometry relative="1" as="geometry">
            <mxPoint x="260" y="540" as="targetPoint" />
          </mxGeometry>
        </mxCell>
        <mxCell id="tD11vHqrNzHcGGNDuIi9-8" value="检测到磁钢编码&lt;br style=&quot;font-size: 13px;&quot;&gt;计算偏移位置信息&amp;nbsp;&lt;b style=&quot;font-size: 13px;&quot;&gt;&lt;font color=&quot;#ff0000&quot; style=&quot;font-size: 13px;&quot;&gt;N&lt;/font&gt;&lt;/b&gt;" style="rounded=0;whiteSpace=wrap;html=1;fontSize=13;" vertex="1" parent="1">
          <mxGeometry x="200" y="440" width="120" height="60" as="geometry" />
        </mxCell>
        <mxCell id="tD11vHqrNzHcGGNDuIi9-11" style="edgeStyle=orthogonalEdgeStyle;rounded=0;orthogonalLoop=1;jettySize=auto;html=1;exitX=0.5;exitY=1;exitDx=0;exitDy=0;entryX=0.5;entryY=0;entryDx=0;entryDy=0;fontSize=13;" edge="1" parent="1" source="tD11vHqrNzHcGGNDuIi9-12" target="tD11vHqrNzHcGGNDuIi9-14">
          <mxGeometry relative="1" as="geometry" />
        </mxCell>
        <mxCell id="tD11vHqrNzHcGGNDuIi9-12" value="电机后退" style="rounded=0;whiteSpace=wrap;html=1;fontSize=13;" vertex="1" parent="1">
          <mxGeometry x="200" y="538" width="120" height="60" as="geometry" />
        </mxCell>
        <mxCell id="tD11vHqrNzHcGGNDuIi9-13" value="无" style="edgeStyle=orthogonalEdgeStyle;rounded=0;orthogonalLoop=1;jettySize=auto;html=1;exitX=0.5;exitY=1;exitDx=0;exitDy=0;entryX=0.5;entryY=0;entryDx=0;entryDy=0;fontSize=13;" edge="1" parent="1" source="tD11vHqrNzHcGGNDuIi9-14" target="tD11vHqrNzHcGGNDuIi9-15">
          <mxGeometry relative="1" as="geometry" />
        </mxCell>
        <mxCell id="tD11vHqrNzHcGGNDuIi9-34" value="&lt;font style=&quot;font-size: 13px;&quot;&gt;有&lt;/font&gt;" style="edgeStyle=orthogonalEdgeStyle;rounded=0;sketch=0;jumpStyle=line;orthogonalLoop=1;jettySize=auto;html=1;exitX=1;exitY=0.5;exitDx=0;exitDy=0;shadow=0;fontColor=#FF0000;strokeWidth=1;fontSize=13;" edge="1" parent="1" source="tD11vHqrNzHcGGNDuIi9-14" target="tD11vHqrNzHcGGNDuIi9-37">
          <mxGeometry relative="1" as="geometry">
            <mxPoint x="400" y="667.5" as="targetPoint" />
          </mxGeometry>
        </mxCell>
        <mxCell id="tD11vHqrNzHcGGNDuIi9-14" value="后超声波避障" style="rhombus;whiteSpace=wrap;html=1;fontSize=13;" vertex="1" parent="1">
          <mxGeometry x="200" y="628" width="120" height="80" as="geometry" />
        </mxCell>
        <mxCell id="tD11vHqrNzHcGGNDuIi9-33" style="edgeStyle=orthogonalEdgeStyle;rounded=0;sketch=0;jumpStyle=line;orthogonalLoop=1;jettySize=auto;html=1;exitX=0.5;exitY=1;exitDx=0;exitDy=0;entryX=0.5;entryY=0;entryDx=0;entryDy=0;shadow=0;fontColor=#FF0000;strokeWidth=1;fontSize=13;" edge="1" parent="1" source="tD11vHqrNzHcGGNDuIi9-15">
          <mxGeometry relative="1" as="geometry">
            <mxPoint x="260" y="848" as="targetPoint" />
          </mxGeometry>
        </mxCell>
        <mxCell id="tD11vHqrNzHcGGNDuIi9-15" value="检测到磁钢编码&lt;br style=&quot;font-size: 13px;&quot;&gt;计算偏移位置信息&amp;nbsp;&amp;nbsp;&lt;b style=&quot;font-size: 13px;&quot;&gt;&lt;font color=&quot;#ff0000&quot; style=&quot;font-size: 13px;&quot;&gt;M&lt;/font&gt;&lt;/b&gt;" style="rounded=0;whiteSpace=wrap;html=1;fontSize=13;" vertex="1" parent="1">
          <mxGeometry x="200" y="748" width="120" height="60" as="geometry" />
        </mxCell>
        <mxCell id="tD11vHqrNzHcGGNDuIi9-23" style="edgeStyle=orthogonalEdgeStyle;rounded=0;orthogonalLoop=1;jettySize=auto;html=1;exitX=0.5;exitY=1;exitDx=0;exitDy=0;entryX=0.5;entryY=0;entryDx=0;entryDy=0;fontSize=13;" edge="1" parent="1" source="tD11vHqrNzHcGGNDuIi9-24" target="tD11vHqrNzHcGGNDuIi9-26">
          <mxGeometry relative="1" as="geometry" />
        </mxCell>
        <mxCell id="tD11vHqrNzHcGGNDuIi9-24" value="电机后退" style="rounded=0;whiteSpace=wrap;html=1;fontSize=13;" vertex="1" parent="1">
          <mxGeometry x="650" y="538" width="120" height="60" as="geometry" />
        </mxCell>
        <mxCell id="tD11vHqrNzHcGGNDuIi9-25" value="无" style="edgeStyle=orthogonalEdgeStyle;rounded=0;orthogonalLoop=1;jettySize=auto;html=1;exitX=0.5;exitY=1;exitDx=0;exitDy=0;entryX=0.5;entryY=0;entryDx=0;entryDy=0;fontSize=13;" edge="1" parent="1" source="tD11vHqrNzHcGGNDuIi9-26" target="tD11vHqrNzHcGGNDuIi9-27">
          <mxGeometry relative="1" as="geometry" />
        </mxCell>
        <mxCell id="tD11vHqrNzHcGGNDuIi9-50" value="有" style="edgeStyle=orthogonalEdgeStyle;rounded=0;sketch=0;jumpStyle=line;orthogonalLoop=1;jettySize=auto;html=1;exitX=1;exitY=0.5;exitDx=0;exitDy=0;shadow=0;fontColor=#FF0000;strokeWidth=1;entryX=0.5;entryY=0;entryDx=0;entryDy=0;fontSize=13;" edge="1" parent="1" source="tD11vHqrNzHcGGNDuIi9-26" target="tD11vHqrNzHcGGNDuIi9-53">
          <mxGeometry relative="1" as="geometry">
            <mxPoint x="920" y="851" as="targetPoint" />
          </mxGeometry>
        </mxCell>
        <mxCell id="tD11vHqrNzHcGGNDuIi9-26" value="后超声波避障" style="rhombus;whiteSpace=wrap;html=1;fontSize=13;" vertex="1" parent="1">
          <mxGeometry x="650" y="628" width="120" height="80" as="geometry" />
        </mxCell>
        <mxCell id="tD11vHqrNzHcGGNDuIi9-30" style="edgeStyle=orthogonalEdgeStyle;rounded=0;sketch=0;jumpStyle=line;orthogonalLoop=1;jettySize=auto;html=1;exitX=0.5;exitY=1;exitDx=0;exitDy=0;entryX=0.5;entryY=0;entryDx=0;entryDy=0;shadow=0;fontColor=#FF0000;strokeWidth=1;fontSize=13;" edge="1" parent="1" source="tD11vHqrNzHcGGNDuIi9-27">
          <mxGeometry relative="1" as="geometry">
            <mxPoint x="710" y="848" as="targetPoint" />
          </mxGeometry>
        </mxCell>
        <mxCell id="tD11vHqrNzHcGGNDuIi9-27" value="检测到磁钢编码&lt;br style=&quot;font-size: 13px;&quot;&gt;计算偏移位置信息&amp;nbsp; &lt;font color=&quot;#ff0000&quot; style=&quot;font-size: 13px;&quot;&gt;&lt;b style=&quot;font-size: 13px;&quot;&gt;P&lt;/b&gt;&lt;/font&gt;" style="rounded=0;whiteSpace=wrap;html=1;fontSize=13;" vertex="1" parent="1">
          <mxGeometry x="650" y="748" width="120" height="60" as="geometry" />
        </mxCell>
        <mxCell id="tD11vHqrNzHcGGNDuIi9-55" style="edgeStyle=orthogonalEdgeStyle;rounded=0;sketch=0;jumpStyle=line;orthogonalLoop=1;jettySize=auto;html=1;exitX=0.5;exitY=1;exitDx=0;exitDy=0;entryX=0.5;entryY=0;entryDx=0;entryDy=0;shadow=0;fontColor=#000000;strokeColor=#000000;strokeWidth=1;fontSize=13;" edge="1" parent="1" source="tD11vHqrNzHcGGNDuIi9-35" target="tD11vHqrNzHcGGNDuIi9-54">
          <mxGeometry relative="1" as="geometry" />
        </mxCell>
        <mxCell id="tD11vHqrNzHcGGNDuIi9-35" value="&lt;font color=&quot;#000000&quot; style=&quot;font-size: 13px;&quot;&gt;上传偏移位置+电机绝对位置信息&lt;/font&gt;" style="rounded=0;whiteSpace=wrap;html=1;fontColor=#FF0000;fontSize=13;" vertex="1" parent="1">
          <mxGeometry x="430" y="987" width="120" height="60" as="geometry" />
        </mxCell>
        <mxCell id="tD11vHqrNzHcGGNDuIi9-47" style="edgeStyle=orthogonalEdgeStyle;rounded=0;sketch=0;jumpStyle=line;orthogonalLoop=1;jettySize=auto;html=1;exitX=0.5;exitY=1;exitDx=0;exitDy=0;entryX=0.5;entryY=0;entryDx=0;entryDy=0;shadow=0;fontColor=#000000;strokeWidth=1;fontSize=13;" edge="1" parent="1" source="tD11vHqrNzHcGGNDuIi9-37" target="tD11vHqrNzHcGGNDuIi9-35">
          <mxGeometry relative="1" as="geometry" />
        </mxCell>
        <mxCell id="tD11vHqrNzHcGGNDuIi9-37" value="偏移位置信息为&amp;nbsp;&lt;b style=&quot;font-size: 13px;&quot;&gt;&lt;font color=&quot;#ff0000&quot; style=&quot;font-size: 13px;&quot;&gt;N&lt;/font&gt;&lt;/b&gt;" style="rounded=0;whiteSpace=wrap;html=1;fontSize=13;" vertex="1" parent="1">
          <mxGeometry x="430" y="847" width="120" height="60" as="geometry" />
        </mxCell>
        <mxCell id="tD11vHqrNzHcGGNDuIi9-49" style="edgeStyle=orthogonalEdgeStyle;rounded=0;sketch=0;jumpStyle=line;orthogonalLoop=1;jettySize=auto;html=1;exitX=0.5;exitY=1;exitDx=0;exitDy=0;entryX=0.5;entryY=0;entryDx=0;entryDy=0;shadow=0;fontColor=#000000;strokeWidth=1;fontSize=13;" edge="1" parent="1" source="tD11vHqrNzHcGGNDuIi9-38" target="tD11vHqrNzHcGGNDuIi9-35">
          <mxGeometry relative="1" as="geometry">
            <Array as="points">
              <mxPoint x="260" y="937" />
              <mxPoint x="490" y="937" />
            </Array>
          </mxGeometry>
        </mxCell>
        <mxCell id="tD11vHqrNzHcGGNDuIi9-38" value="偏移位置信息为&lt;br style=&quot;font-size: 13px;&quot;&gt;&amp;nbsp;(&lt;b style=&quot;font-size: 13px;&quot;&gt;&lt;font color=&quot;#ff0000&quot; style=&quot;font-size: 13px;&quot;&gt;N+M)/2&lt;/font&gt;&lt;/b&gt;" style="rounded=0;whiteSpace=wrap;html=1;fontSize=13;" vertex="1" parent="1">
          <mxGeometry x="200" y="847" width="120" height="60" as="geometry" />
        </mxCell>
        <mxCell id="tD11vHqrNzHcGGNDuIi9-48" style="edgeStyle=orthogonalEdgeStyle;rounded=0;sketch=0;jumpStyle=line;orthogonalLoop=1;jettySize=auto;html=1;entryX=0.5;entryY=0;entryDx=0;entryDy=0;shadow=0;fontColor=#000000;strokeWidth=1;fontSize=13;" edge="1" parent="1" source="tD11vHqrNzHcGGNDuIi9-39" target="tD11vHqrNzHcGGNDuIi9-35">
          <mxGeometry relative="1" as="geometry">
            <Array as="points">
              <mxPoint x="710" y="937" />
              <mxPoint x="490" y="937" />
            </Array>
          </mxGeometry>
        </mxCell>
        <mxCell id="tD11vHqrNzHcGGNDuIi9-39" value="偏移位置信息为 &lt;font color=&quot;#ff0000&quot; style=&quot;font-size: 13px;&quot;&gt;&lt;b style=&quot;font-size: 13px;&quot;&gt;P&lt;/b&gt;&lt;/font&gt;" style="rounded=0;whiteSpace=wrap;html=1;fontSize=13;" vertex="1" parent="1">
          <mxGeometry x="650" y="847" width="120" height="60" as="geometry" />
        </mxCell>
        <mxCell id="tD11vHqrNzHcGGNDuIi9-56" style="edgeStyle=orthogonalEdgeStyle;rounded=0;sketch=0;jumpStyle=line;orthogonalLoop=1;jettySize=auto;html=1;exitX=0.5;exitY=1;exitDx=0;exitDy=0;shadow=0;fontColor=#000000;strokeColor=#000000;strokeWidth=1;fontSize=13;" edge="1" parent="1" source="tD11vHqrNzHcGGNDuIi9-53" target="tD11vHqrNzHcGGNDuIi9-54">
          <mxGeometry relative="1" as="geometry">
            <Array as="points">
              <mxPoint x="930" y="1067" />
              <mxPoint x="490" y="1067" />
            </Array>
          </mxGeometry>
        </mxCell>
        <mxCell id="tD11vHqrNzHcGGNDuIi9-53" value="&lt;font color=&quot;#000000&quot; style=&quot;font-size: 13px;&quot;&gt;上报故障信息，无法定位，需手动定位&lt;/font&gt;" style="rounded=0;whiteSpace=wrap;html=1;fontColor=#FF0000;fontSize=13;" vertex="1" parent="1">
          <mxGeometry x="870" y="847" width="120" height="60" as="geometry" />
        </mxCell>
        <mxCell id="tD11vHqrNzHcGGNDuIi9-54" value="结束" style="rounded=1;whiteSpace=wrap;html=1;fontColor=#000000;fontSize=13;" vertex="1" parent="1">
          <mxGeometry x="430" y="1097" width="120" height="60" as="geometry" />
        </mxCell>
      </root>
    </mxGraphModel>
  </diagram>
</mxfile>
